<svg width="100" height="100" viewBox="0 0 100 100" fill="none" xmlns="http://www.w3.org/2000/svg">
<g filter="url(#filter0_d_66_1209)">
<rect x="4" width="91.5618" height="91.5618" rx="45.7809" fill="#00D95F" shape-rendering="crispEdges"/>
<path d="M22 71.0444L25.9493 56.373C22.7643 50.6577 21.7524 43.9885 23.0993 37.5891C24.4461 31.1897 28.0615 25.4894 33.2818 21.5342C38.5022 17.579 44.9774 15.6343 51.5193 16.0568C58.0612 16.4794 64.2309 19.2408 68.8962 23.8345C73.5616 28.4282 76.4098 34.546 76.918 41.0652C77.4262 47.5844 75.5604 54.0678 71.6631 59.3256C67.7657 64.5834 62.0981 68.263 55.7004 69.6892C49.3026 71.1153 42.6038 70.1924 36.8332 67.0897L22 71.0444ZM37.5485 61.5995L38.4658 62.1423C42.6456 64.6134 47.5275 65.636 52.3507 65.0507C57.174 64.4654 61.6676 62.3051 65.1314 58.9065C68.5953 55.5078 70.8347 51.0617 71.5006 46.261C72.1666 41.4602 71.2218 36.5746 68.8134 32.3655C66.405 28.1563 62.6683 24.86 58.1856 22.9903C53.703 21.1206 48.7261 20.7824 44.0307 22.0286C39.3353 23.2748 35.185 26.0352 32.2266 29.8798C29.2682 33.7243 27.668 38.437 27.6752 43.2835C27.6713 47.3019 28.7854 51.2427 30.8937 54.667L31.469 55.6131L29.2611 63.8018L37.5485 61.5995Z" fill="#FCFCFC"/>
<path fill-rule="evenodd" clip-rule="evenodd" d="M61.3374 47.9947C60.7051 47.486 59.9647 47.1279 59.1726 46.9478C58.3805 46.7677 57.5577 46.7702 56.7667 46.9553C55.5784 47.4476 54.8105 49.3077 54.0426 50.2378C53.8807 50.4607 53.6428 50.6171 53.3735 50.6775C53.1042 50.738 52.8221 50.6983 52.58 50.566C48.2294 48.8663 44.5826 45.7494 42.2321 41.7215C42.0316 41.4701 41.9367 41.151 41.9674 40.8313C41.9981 40.5115 42.1519 40.2162 42.3966 40.0073C43.253 39.1616 43.8818 38.1142 44.2249 36.9619C44.301 35.6908 44.0091 34.4248 43.3839 33.3147C42.9005 31.7583 41.9806 30.3725 40.7329 29.3209C40.0893 29.0322 39.3758 28.9354 38.6783 29.0422C37.9808 29.149 37.3292 29.4548 36.8021 29.9227C35.887 30.7102 35.1607 31.6925 34.6766 32.7971C34.1925 33.9017 33.9629 35.1006 34.0049 36.3054C34.0077 36.982 34.0937 37.6556 34.2608 38.3114C34.6854 39.8868 35.3382 41.3919 36.1988 42.7792C36.8197 43.8419 37.4971 44.8706 38.2282 45.8611C40.6041 49.1144 43.5906 51.8766 47.0221 53.9944C48.744 55.0706 50.5844 55.9456 52.5069 56.6022C54.5039 57.5051 56.7089 57.8517 58.8875 57.6052C60.1289 57.4178 61.305 56.9289 62.3124 56.1816C63.3198 55.4343 64.1277 54.4515 64.6648 53.3197C64.9805 52.6359 65.0763 51.8715 64.9391 51.1313C64.61 49.6177 62.5806 48.7242 61.3374 47.9947Z" fill="#FCFCFC"/>
</g>
<defs>
<filter id="filter0_d_66_1209" x="0" y="0" width="99.5618" height="99.5618" filterUnits="userSpaceOnUse" color-interpolation-filters="sRGB">
<feFlood flood-opacity="0" result="BackgroundImageFix"/>
<feColorMatrix in="SourceAlpha" type="matrix" values="0 0 0 0 0 0 0 0 0 0 0 0 0 0 0 0 0 0 127 0" result="hardAlpha"/>
<feOffset dy="4"/>
<feGaussianBlur stdDeviation="2"/>
<feComposite in2="hardAlpha" operator="out"/>
<feColorMatrix type="matrix" values="0 0 0 0 0 0 0 0 0 0 0 0 0 0 0 0 0 0 0.25 0"/>
<feBlend mode="normal" in2="BackgroundImageFix" result="effect1_dropShadow_66_1209"/>
<feBlend mode="normal" in="SourceGraphic" in2="effect1_dropShadow_66_1209" result="shape"/>
</filter>
</defs>
</svg>
